<mxfile host="Electron" agent="Mozilla/5.0 (X11; Linux x86_64) AppleWebKit/537.36 (KHTML, like Gecko) draw.io/24.7.5 Chrome/126.0.6478.183 Electron/31.3.0 Safari/537.36" version="24.7.5">
  <diagram name="PÃ¡gina-1" id="2GFCCF4wUd0BqpmDm1oS">
    <mxGraphModel dx="779" dy="482" grid="1" gridSize="10" guides="1" tooltips="1" connect="1" arrows="1" fold="1" page="1" pageScale="1" pageWidth="827" pageHeight="1169" math="0" shadow="0">
      <root>
        <mxCell id="0" />
        <mxCell id="1" parent="0" />
        <mxCell id="escIDW2xU7wi9JDWqzNq-5" style="edgeStyle=orthogonalEdgeStyle;rounded=0;orthogonalLoop=1;jettySize=auto;html=1;entryX=0;entryY=0.5;entryDx=0;entryDy=0;" edge="1" parent="1" source="escIDW2xU7wi9JDWqzNq-1" target="escIDW2xU7wi9JDWqzNq-3">
          <mxGeometry relative="1" as="geometry" />
        </mxCell>
        <mxCell id="escIDW2xU7wi9JDWqzNq-6" style="edgeStyle=orthogonalEdgeStyle;rounded=0;orthogonalLoop=1;jettySize=auto;html=1;" edge="1" parent="1" source="escIDW2xU7wi9JDWqzNq-1" target="escIDW2xU7wi9JDWqzNq-4">
          <mxGeometry relative="1" as="geometry" />
        </mxCell>
        <mxCell id="escIDW2xU7wi9JDWqzNq-1" value="get" style="text;html=1;align=center;verticalAlign=middle;resizable=0;points=[];autosize=1;strokeColor=none;fillColor=none;" vertex="1" parent="1">
          <mxGeometry x="350" y="328" width="40" height="30" as="geometry" />
        </mxCell>
        <mxCell id="escIDW2xU7wi9JDWqzNq-3" value="get in" style="rounded=1;whiteSpace=wrap;html=1;" vertex="1" parent="1">
          <mxGeometry x="450" y="230" width="120" height="60" as="geometry" />
        </mxCell>
        <mxCell id="escIDW2xU7wi9JDWqzNq-4" value="get on" style="rounded=1;whiteSpace=wrap;html=1;" vertex="1" parent="1">
          <mxGeometry x="450" y="350" width="120" height="60" as="geometry" />
        </mxCell>
      </root>
    </mxGraphModel>
  </diagram>
</mxfile>
